<svg width="100" height="66" viewBox="0 0 100 66" fill="none" xmlns="http://www.w3.org/2000/svg">
<g clip-path="url(#clip0_33_4997)">
<path d="M14.8859 28.1105V32.5706H6.16262V34.4879H13.3925V38.9708H6.16262V40.8881H14.8859V45.3483H0V28.1105H14.8859Z" fill="black"/>
<path d="M31.714 30.8672C32.504 31.987 32.9614 33.3523 33.0879 34.9663H27.1141C27.0188 33.3207 26.2218 32.497 24.7197 32.497C22.9664 32.497 22.088 33.9113 22.088 36.7416C22.088 39.5544 22.9647 40.9617 24.7197 40.9617C25.4942 40.9617 26.078 40.7935 26.4731 40.4587C26.8681 40.1065 27.1124 39.5159 27.2077 38.6852H33.0861C32.9285 41.002 32.0518 42.7773 30.4544 44.0076C28.8743 45.2063 26.8837 45.8057 24.4824 45.8057C22.0014 45.8057 19.9397 45.0223 18.2955 43.4555C16.6669 41.873 15.8544 39.635 15.8544 36.7416C15.8544 33.8798 16.6843 31.6506 18.3423 30.0523C20.0176 28.4539 22.0638 27.6548 24.4806 27.6548C27.7863 27.6548 30.1963 28.7256 31.714 30.8672Z" fill="black"/>
<path d="M36.3589 43.3837C34.7788 41.7696 33.9888 39.5562 33.9888 36.7416C33.9888 33.9288 34.7788 31.7154 36.3589 30.0996C37.9545 28.4697 40.1912 27.6548 43.0672 27.6548C45.9432 27.6548 48.1713 28.4697 49.7513 30.0996C51.347 31.7452 52.1457 33.9604 52.1457 36.7416C52.1457 39.5229 51.347 41.7363 49.7513 43.3837C48.1557 44.9978 45.9276 45.8057 43.0672 45.8057C40.1912 45.8039 37.9545 44.9978 36.3589 43.3837ZM45.1775 33.673C44.6872 32.8896 43.9837 32.4988 43.0672 32.4988C42.1507 32.4988 41.4404 32.8983 40.9345 33.6975C40.4598 34.4493 40.2242 35.464 40.2242 36.7434C40.2242 38.0227 40.4615 39.0374 40.9345 39.7875C41.4404 40.5709 42.1507 40.9617 43.0672 40.9617C43.9837 40.9617 44.6872 40.5709 45.1775 39.7875C45.6522 39.0374 45.8878 38.021 45.8878 36.7434C45.8878 35.4465 45.6504 34.4248 45.1775 33.673Z" fill="black"/>
<path d="M25.5046 66H19.3419V53.6517H14.8859V48.7604H29.9849V53.6517H25.5046V66V66Z" fill="black"/>
<path d="M46.4561 59.8381C46.8823 60.6215 47.0954 61.9394 47.0954 63.7936C47.0954 64.817 47.2687 65.5531 47.6169 66H41.3122C41.0437 65.504 40.9086 64.7206 40.9086 63.6499C40.9086 61.3488 40.2849 60.1974 39.0357 60.1974H37.3534V66H31.1908V48.7622H40.1029C44.812 48.7622 47.1665 50.6076 47.1665 54.3001C47.1665 56.2507 46.2656 57.5774 44.4637 58.2801C45.3664 58.5185 46.0299 59.039 46.4561 59.8381ZM37.3551 55.7144H39.299C40.3888 55.7144 40.9346 55.2991 40.9346 54.4684C40.9346 53.6377 40.3888 53.2223 39.299 53.2223H37.3551V55.7144Z" fill="black"/>
<path d="M54.0411 66H47.7365L53.8748 48.7622H60.4168L66.5552 66H60.2505L59.5402 63.5307H54.7515L54.0411 66ZM57.1233 54.8031L55.8672 59.3351H58.4036L57.1233 54.8031Z" fill="black"/>
<path d="M75.2785 48.7604C78.028 48.7604 80.1452 49.4965 81.63 50.9668C83.1303 52.453 83.8822 54.5946 83.8822 57.3916C83.8822 60.1571 83.1477 62.2916 81.6785 63.7936C80.2249 65.2639 78.1857 66 75.5626 66H67.2915V48.7622H75.2785V48.7604ZM73.4541 61.156H74.3308C76.5432 61.156 77.6486 59.9012 77.6486 57.3916C77.6486 54.8662 76.5415 53.6026 74.3308 53.6026H73.4541V61.156Z" fill="black"/>
<path d="M99.9999 48.7604V53.2206H91.2766V55.1378H98.5065V59.6208H91.2766V61.5398H99.9999V66H85.114V48.7622H99.9999V48.7604Z" fill="black"/>
<path d="M27.3238 19.1849C27.2198 19.6651 27.2267 20.0804 27.2181 20.4905C27.1938 21.6629 27.0587 22.8231 26.9236 23.985C26.9097 24.0972 26.8577 24.2058 26.8231 24.3163C26.7676 24.4985 26.6758 24.5301 26.4852 24.4705C26.1404 24.3601 25.8494 24.155 25.5393 23.9833C23.4914 22.8441 21.9165 21.2616 20.9636 19.071C20.1043 17.0941 19.9224 15.0489 20.3555 12.9529C20.5704 11.9119 20.8684 10.8867 21.0728 9.84042C21.2824 8.77489 21.3223 7.70585 21.1941 6.6263C20.9654 4.7213 20.1909 3.03187 19.2415 1.40378C19.0249 1.034 18.7841 0.683492 18.5433 0.331235C18.4879 0.250619 18.3978 0.147221 18.4757 0.0490794C18.5572 -0.0543194 18.668 0.0280491 18.7581 0.0683571C20.8094 1.00245 22.7793 2.07675 24.6279 3.38238C26.0278 4.3708 27.3238 5.48015 28.4135 6.79629C30.3003 9.07632 31.5078 11.6473 31.4992 14.7072C31.4957 15.9357 31.3796 17.1414 31.04 18.3121C30.5879 19.8666 29.9139 21.3212 28.916 22.6058C28.7392 22.8336 28.5608 23.0597 28.3789 23.284C28.3165 23.3611 28.2697 23.4891 28.145 23.454C28.0185 23.419 27.9925 23.2858 27.9752 23.1736C27.899 22.6706 27.8262 22.1659 27.7604 21.6612C27.6651 20.9146 27.5767 20.1663 27.4173 19.4302C27.4035 19.3689 27.3723 19.3111 27.3238 19.1849Z" fill="#3BB77E"/>
<path d="M37.9598 19.8263C36.4213 20.4449 35.0734 21.3422 33.897 22.5462C32.7328 23.7362 31.8544 25.1136 31.1111 26.598C31.0765 26.5875 31.0418 26.5788 31.0072 26.5682C31.0072 26.0793 30.9638 25.5851 31.0158 25.1014C31.1232 24.1129 31.2047 23.1228 31.4628 22.1519C31.8024 20.876 32.3066 19.6843 32.9788 18.5539C33.5696 17.5585 34.3717 16.7418 35.1479 15.9129C35.905 15.105 36.9047 14.6353 37.9373 14.2533C39.8985 13.526 41.9568 13.1316 43.9266 12.4376C45.226 11.9785 46.4492 11.3861 47.416 10.3556C47.4766 10.2908 47.539 10.1857 47.6395 10.2225C47.7625 10.268 47.7278 10.4012 47.7209 10.4976C47.6429 11.6069 47.532 12.7145 47.312 13.8029C47.1024 14.8351 46.8598 15.8603 46.4977 16.854C45.7008 19.0376 44.6006 21.039 43.0777 22.7968C41.5773 24.5283 39.6802 25.6306 37.5527 26.3614C36.3815 26.7645 35.167 26.9222 33.9334 26.924C33.3686 26.9258 33.3149 26.8521 33.4899 26.2896C33.8728 25.0663 34.545 24.0078 35.3194 23.0054C36.0627 22.045 36.8648 21.1407 37.7276 20.2872C37.8403 20.1768 37.9338 20.0471 38.036 19.9262C38.0083 19.8946 37.9841 19.8613 37.9598 19.8263Z" fill="#3BB77E"/>
</g>
<defs>
<clipPath id="clip0_33_4997">
<rect width="100" height="66" fill="white"/>
</clipPath>
</defs>
</svg>
