<svg width="235" height="66" viewBox="0 0 235 66" fill="none" xmlns="http://www.w3.org/2000/svg">
<g clip-path="url(#clip0_32_7892)">
<path d="M81.8859 28.1104V32.5705H73.1626V34.4878H80.3925V38.9707H73.1626V40.888H81.8859V45.3482H67V28.1104H81.8859Z" fill="black"/>
<path d="M98.714 30.8672C99.504 31.987 99.9614 33.3522 100.088 34.9663H94.1141C94.0188 33.3207 93.2218 32.497 91.7197 32.497C89.9664 32.497 89.088 33.9113 89.088 36.7416C89.088 39.5544 89.9647 40.9617 91.7197 40.9617C92.4942 40.9617 93.078 40.7934 93.4731 40.4587C93.8681 40.1065 94.1124 39.5159 94.2077 38.6852H100.086C99.9285 41.002 99.0518 42.7773 97.4544 44.0076C95.8743 45.2063 93.8837 45.8057 91.4824 45.8057C89.0014 45.8057 86.9397 45.0223 85.2955 43.4555C83.6669 41.873 82.8544 39.635 82.8544 36.7416C82.8544 33.8797 83.6843 31.6505 85.3423 30.0522C87.0176 28.4539 89.0638 27.6548 91.4806 27.6548C94.7863 27.6548 97.1963 28.7256 98.714 30.8672Z" fill="black"/>
<path d="M103.359 43.3837C101.779 41.7696 100.989 39.5562 100.989 36.7416C100.989 33.9288 101.779 31.7154 103.359 30.0996C104.955 28.4697 107.191 27.6548 110.067 27.6548C112.943 27.6548 115.171 28.4697 116.751 30.0996C118.347 31.7452 119.146 33.9604 119.146 36.7416C119.146 39.5229 118.347 41.7363 116.751 43.3837C115.156 44.9978 112.928 45.8057 110.067 45.8057C107.191 45.8039 104.955 44.9978 103.359 43.3837ZM112.178 33.6729C111.687 32.8896 110.984 32.4988 110.067 32.4988C109.151 32.4988 108.44 32.8983 107.935 33.6975C107.46 34.4493 107.224 35.464 107.224 36.7434C107.224 38.0227 107.462 39.0374 107.935 39.7875C108.44 40.5709 109.151 40.9617 110.067 40.9617C110.984 40.9617 111.687 40.5709 112.178 39.7875C112.652 39.0374 112.888 38.021 112.888 36.7434C112.888 35.4465 112.651 34.4248 112.178 33.6729Z" fill="black"/>
<path d="M92.5046 66.0001H86.342V53.6518H81.8859V48.7605H96.9849V53.6518H92.5046V66.0001V66.0001Z" fill="black"/>
<path d="M113.456 59.8382C113.882 60.6215 114.095 61.9394 114.095 63.7936C114.095 64.8171 114.269 65.5531 114.617 66H108.312C108.044 65.5041 107.909 64.7207 107.909 63.6499C107.909 61.3488 107.285 60.1974 106.036 60.1974H104.353V66H98.1907V48.7622H107.103C111.812 48.7622 114.166 50.6076 114.166 54.3002C114.166 56.2507 113.265 57.5774 111.464 58.2802C112.366 58.5185 113.03 59.039 113.456 59.8382ZM104.355 55.7145H106.299C107.389 55.7145 107.934 55.2991 107.934 54.4684C107.934 53.6377 107.389 53.2224 106.299 53.2224H104.355V55.7145Z" fill="black"/>
<path d="M121.041 66H114.736L120.875 48.7622H127.417L133.555 66H127.251L126.54 63.5307H121.751L121.041 66ZM124.123 54.8032L122.867 59.3352H125.404L124.123 54.8032Z" fill="black"/>
<path d="M142.278 48.7605C145.028 48.7605 147.145 49.4966 148.63 50.9669C150.13 52.4531 150.882 54.5946 150.882 57.3917C150.882 60.1572 150.148 62.2917 148.678 63.7936C147.225 65.264 145.186 66.0001 142.563 66.0001H134.292V48.7622H142.278V48.7605ZM140.454 61.1561H141.331C143.543 61.1561 144.649 59.9013 144.649 57.3917C144.649 54.8663 143.542 53.6027 141.331 53.6027H140.454V61.1561Z" fill="black"/>
<path d="M167 48.7605V53.2207H158.277V55.1379H165.507V59.6209H158.277V61.5399H167V66.0001H152.114V48.7622H167V48.7605Z" fill="black"/>
<path d="M94.3238 19.1849C94.2198 19.6651 94.2267 20.0804 94.2181 20.4905C94.1938 21.663 94.0587 22.8231 93.9236 23.9851C93.9097 24.0972 93.8577 24.2059 93.8231 24.3163C93.7676 24.4985 93.6758 24.5301 93.4852 24.4705C93.1404 24.3601 92.8494 24.155 92.5393 23.9833C90.4914 22.8442 88.9165 21.2616 87.9636 19.071C87.1043 17.0941 86.9224 15.0489 87.3555 12.9529C87.5704 11.9119 87.8684 10.8867 88.0728 9.84044C88.2824 8.77491 88.3223 7.70587 88.1941 6.62632C87.9654 4.72133 87.1909 3.0319 86.2415 1.4038C86.0249 1.03402 85.7841 0.683515 85.5433 0.331258C85.4879 0.250642 85.3978 0.147244 85.4757 0.0491023C85.5572 -0.0542965 85.668 0.028072 85.7581 0.06838C87.8094 1.00247 89.7793 2.07677 91.6279 3.3824C93.0278 4.37082 94.3238 5.48017 95.4135 6.79631C97.3003 9.07634 98.5078 11.6473 98.4992 14.7072C98.4957 15.9357 98.3796 17.1415 98.04 18.3121C97.5879 19.8666 96.9139 21.3212 95.916 22.6058C95.7392 22.8336 95.5608 23.0597 95.3789 23.284C95.3165 23.3612 95.2697 23.4891 95.145 23.454C95.0185 23.419 94.9925 23.2858 94.9752 23.1736C94.899 22.6707 94.8262 22.1659 94.7604 21.6612C94.6651 20.9146 94.5767 20.1663 94.4173 19.4302C94.4035 19.3689 94.3723 19.3111 94.3238 19.1849Z" fill="#3BB77E"/>
<path d="M104.96 19.8263C103.421 20.4449 102.073 21.3422 100.897 22.5462C99.7328 23.7362 98.8544 25.1136 98.1111 26.598C98.0765 26.5875 98.0418 26.5788 98.0072 26.5682C98.0072 26.0793 97.9638 25.5851 98.0158 25.1014C98.1232 24.1129 98.2047 23.1228 98.4628 22.1519C98.8024 20.876 99.3066 19.6843 99.9788 18.5539C100.57 17.5585 101.372 16.7418 102.148 15.9129C102.905 15.105 103.905 14.6353 104.937 14.2533C106.899 13.526 108.957 13.1316 110.927 12.4376C112.226 11.9785 113.449 11.3861 114.416 10.3556C114.477 10.2908 114.539 10.1857 114.639 10.2225C114.762 10.268 114.728 10.4012 114.721 10.4976C114.643 11.6069 114.532 12.7145 114.312 13.8029C114.102 14.8351 113.86 15.8603 113.498 16.854C112.701 19.0376 111.601 21.039 110.078 22.7968C108.577 24.5283 106.68 25.6306 104.553 26.3614C103.381 26.7645 102.167 26.9222 100.933 26.924C100.369 26.9258 100.315 26.8521 100.49 26.2896C100.873 25.0663 101.545 24.0078 102.319 23.0054C103.063 22.045 103.865 21.1407 104.728 20.2872C104.84 20.1768 104.934 20.0471 105.036 19.9262C105.008 19.8946 104.984 19.8613 104.96 19.8263Z" fill="#3BB77E"/>
</g>
<defs>
<clipPath id="clip0_32_7892">
<rect width="100" height="66" fill="white" transform="translate(67)"/>
</clipPath>
</defs>
</svg>
